<svg width="1679" height="937" viewBox="0 0 1679 937" xmlns="http://www.w3.org/2000/svg">
  <defs>
    <linearGradient id="redPlate" x1="0" y1="0" x2="1" y2="1">
      <stop offset="0" stop-color="#ff2b17"/>
      <stop offset=".45" stop-color="#9b0808"/>
      <stop offset="1" stop-color="#320003"/>
    </linearGradient>
    <linearGradient id="gold" x1="0" y1="0" x2="1" y2="1">
      <stop offset="0" stop-color="#fff7b6"/>
      <stop offset=".22" stop-color="#ffcc38"/>
      <stop offset=".55" stop-color="#a65a00"/>
      <stop offset=".8" stop-color="#ffde62"/>
      <stop offset="1" stop-color="#6f3700"/>
    </linearGradient>
    <linearGradient id="chrome" x1="0" y1="0" x2="0" y2="1">
      <stop offset="0" stop-color="#f6fbff"/>
      <stop offset=".14" stop-color="#69717e"/>
      <stop offset=".38" stop-color="#151922"/>
      <stop offset=".56" stop-color="#dce8f5"/>
      <stop offset=".74" stop-color="#252b36"/>
      <stop offset="1" stop-color="#05070c"/>
    </linearGradient>
    <linearGradient id="deepGlass" x1="0" y1="0" x2="0" y2="1">
      <stop offset="0" stop-color="#7c0808" stop-opacity=".92"/>
      <stop offset=".48" stop-color="#160005" stop-opacity=".97"/>
      <stop offset="1" stop-color="#620507" stop-opacity=".94"/>
    </linearGradient>
    <radialGradient id="greenLamp" cx="50%" cy="50%" r="64%">
      <stop offset="0" stop-color="#e9ffd7"/>
      <stop offset=".24" stop-color="#39ff3f"/>
      <stop offset=".62" stop-color="#079518"/>
      <stop offset="1" stop-color="#003408"/>
    </radialGradient>
    <radialGradient id="bulb" cx="50%" cy="38%" r="65%">
      <stop offset="0" stop-color="#fff9cf"/>
      <stop offset=".42" stop-color="#ffd74a"/>
      <stop offset=".78" stop-color="#b85a00"/>
      <stop offset="1" stop-color="#2e1000"/>
    </radialGradient>
    <filter id="shadow" x="-10%" y="-10%" width="120%" height="125%">
      <feDropShadow dx="0" dy="8" stdDeviation="9" flood-color="#000" flood-opacity=".75"/>
    </filter>
    <filter id="goldGlow" x="-40%" y="-40%" width="180%" height="180%">
      <feDropShadow dx="0" dy="0" stdDeviation="5" flood-color="#ffcc32" flood-opacity=".68"/>
    </filter>
    <mask id="reelOpenings">
      <rect width="1679" height="937" fill="#fff"/>
      <rect x="212" y="257" width="404" height="498" rx="18" fill="#000"/>
      <rect x="637" y="257" width="404" height="498" rx="18" fill="#000"/>
      <rect x="1062" y="257" width="404" height="498" rx="18" fill="#000"/>
    </mask>
    <pattern id="pinDots" width="22" height="22" patternUnits="userSpaceOnUse">
      <circle cx="5" cy="5" r="1.8" fill="#ffdf6c" opacity=".42"/>
    </pattern>
  </defs>

  <g filter="url(#shadow)">
    <path d="M58 62 C268 8 472 28 654 54 L839 78 L1024 54 C1206 28 1411 8 1621 62 L1598 858 C1376 920 1163 902 1005 879 L839 857 L674 879 C516 902 303 920 81 858 Z" fill="url(#chrome)" opacity=".98"/>
    <path d="M92 88 C292 45 492 58 672 84 L839 106 L1006 84 C1186 58 1387 45 1587 88 L1562 830 C1370 870 1171 858 1014 836 L839 812 L664 836 C507 858 309 870 117 830 Z" fill="url(#redPlate)"/>
    <path d="M118 112 C312 78 500 88 682 112 L839 132 L996 112 C1178 88 1366 78 1560 112 L1542 806 C1360 834 1173 824 1018 803 L839 779 L660 803 C505 824 319 834 136 806 Z" fill="#4f0305" opacity=".42"/>
    <path d="M118 112 C312 78 500 88 682 112 L839 132 L996 112 C1178 88 1366 78 1560 112 L1542 806 C1360 834 1173 824 1018 803 L839 779 L660 803 C505 824 319 834 136 806 Z" fill="url(#pinDots)" opacity=".7"/>
  </g>

  <g filter="url(#goldGlow)">
    <path d="M132 102 C338 66 523 77 694 100 L839 119 L984 100 C1155 77 1341 66 1547 102" fill="none" stroke="url(#gold)" stroke-width="12" stroke-linecap="round"/>
    <path d="M136 810 C324 850 509 838 663 818 L839 794 L1015 818 C1169 838 1355 850 1543 810" fill="none" stroke="url(#gold)" stroke-width="12" stroke-linecap="round"/>
  </g>

  <g>
    <rect x="187" y="80" width="1305" height="148" rx="28" fill="url(#chrome)" opacity=".96"/>
    <rect x="213" y="101" width="1253" height="106" rx="20" fill="url(#deepGlass)" stroke="url(#gold)" stroke-width="5"/>
    <g opacity=".92">
      <rect x="232" y="116" width="210" height="76" rx="14" fill="#180006" stroke="#f0cf73" stroke-width="3"/>
      <rect x="476" y="116" width="210" height="76" rx="14" fill="#180006" stroke="#f0cf73" stroke-width="3"/>
      <rect x="720" y="116" width="210" height="76" rx="14" fill="#180006" stroke="#f0cf73" stroke-width="3"/>
      <rect x="964" y="116" width="210" height="76" rx="14" fill="#180006" stroke="#f0cf73" stroke-width="3"/>
      <rect x="1208" y="116" width="210" height="76" rx="14" fill="#180006" stroke="#f0cf73" stroke-width="3"/>
    </g>
  </g>

  <g>
    <rect x="170" y="228" width="1339" height="560" rx="44" fill="url(#chrome)" mask="url(#reelOpenings)" opacity=".98"/>
    <rect x="188" y="246" width="1303" height="524" rx="34" fill="url(#redPlate)" mask="url(#reelOpenings)" opacity=".83"/>
    <rect x="207" y="255" width="407" height="514" rx="28" fill="none" stroke="#230005" stroke-width="24" opacity=".9"/>
    <rect x="634" y="255" width="407" height="514" rx="28" fill="none" stroke="#230005" stroke-width="24" opacity=".9"/>
    <rect x="1061" y="255" width="407" height="514" rx="28" fill="none" stroke="#230005" stroke-width="24" opacity=".9"/>
    <rect x="210" y="258" width="401" height="508" rx="25" fill="none" stroke="url(#gold)" stroke-width="11"/>
    <rect x="637" y="258" width="401" height="508" rx="25" fill="none" stroke="url(#gold)" stroke-width="11"/>
    <rect x="1064" y="258" width="401" height="508" rx="25" fill="none" stroke="url(#gold)" stroke-width="11"/>
    <rect x="225" y="273" width="371" height="478" rx="15" fill="none" stroke="url(#chrome)" stroke-width="9" opacity=".96"/>
    <rect x="652" y="273" width="371" height="478" rx="15" fill="none" stroke="url(#chrome)" stroke-width="9" opacity=".96"/>
    <rect x="1079" y="273" width="371" height="478" rx="15" fill="none" stroke="url(#chrome)" stroke-width="9" opacity=".96"/>
    <path d="M622 262 L636 262 L636 767 L622 767 Z M1049 262 L1063 262 L1063 767 L1049 767 Z" fill="url(#gold)" opacity=".95"/>
  </g>

  <g>
    <path d="M70 764 C246 734 408 746 560 768 L839 808 L1118 768 C1270 746 1433 734 1609 764 L1568 919 L111 919 Z" fill="url(#chrome)"/>
    <path d="M122 789 C286 766 430 777 574 798 L839 837 L1104 798 C1248 777 1392 766 1557 789 L1535 889 L144 889 Z" fill="url(#deepGlass)" opacity=".96"/>
    <path d="M280 809 L1399 809" stroke="url(#gold)" stroke-width="8" stroke-linecap="round"/>
    <g filter="url(#goldGlow)">
      <ellipse cx="180" cy="830" rx="96" ry="48" fill="#180006" stroke="url(#gold)" stroke-width="8"/>
      <ellipse cx="494" cy="834" rx="88" ry="43" fill="#180006" stroke="url(#gold)" stroke-width="7"/>
      <ellipse cx="839" cy="839" rx="92" ry="46" fill="#180006" stroke="url(#gold)" stroke-width="8"/>
      <ellipse cx="1184" cy="834" rx="88" ry="43" fill="#180006" stroke="url(#gold)" stroke-width="7"/>
      <ellipse cx="1499" cy="830" rx="96" ry="48" fill="#180006" stroke="url(#gold)" stroke-width="8"/>
    </g>
  </g>

  <g filter="url(#goldGlow)">
    <path d="M839 42 L859 100 L920 100 L871 136 L890 194 L839 158 L788 194 L807 136 L758 100 L819 100 Z" fill="url(#gold)"/>
    <path d="M99 165 L117 218 L173 218 L128 251 L145 305 L99 272 L53 305 L70 251 L25 218 L81 218 Z" fill="url(#gold)" opacity=".88"/>
    <path d="M1580 165 L1598 218 L1654 218 L1609 251 L1626 305 L1580 272 L1534 305 L1551 251 L1506 218 L1562 218 Z" fill="url(#gold)" opacity=".88"/>
  </g>

  <g opacity=".96">
    <rect x="306" y="61" width="1068" height="34" rx="17" fill="url(#chrome)"/>
    <rect x="331" y="67" width="1018" height="20" rx="10" fill="#061007"/>
    <g>
      <circle cx="406" cy="77" r="10" fill="url(#greenLamp)"/>
      <circle cx="457" cy="77" r="10" fill="url(#greenLamp)"/>
      <circle cx="508" cy="77" r="10" fill="url(#greenLamp)"/>
      <circle cx="559" cy="77" r="10" fill="url(#greenLamp)"/>
      <circle cx="1120" cy="77" r="10" fill="url(#greenLamp)"/>
      <circle cx="1171" cy="77" r="10" fill="url(#greenLamp)"/>
      <circle cx="1222" cy="77" r="10" fill="url(#greenLamp)"/>
      <circle cx="1273" cy="77" r="10" fill="url(#greenLamp)"/>
    </g>
  </g>

  <g opacity=".9">
    <circle cx="238" cy="54" r="9" fill="url(#bulb)"/>
    <circle cx="302" cy="47" r="9" fill="url(#bulb)"/>
    <circle cx="366" cy="43" r="9" fill="url(#bulb)"/>
    <circle cx="430" cy="43" r="9" fill="url(#bulb)"/>
    <circle cx="494" cy="47" r="9" fill="url(#bulb)"/>
    <circle cx="558" cy="54" r="9" fill="url(#bulb)"/>
    <circle cx="1121" cy="54" r="9" fill="url(#bulb)"/>
    <circle cx="1185" cy="47" r="9" fill="url(#bulb)"/>
    <circle cx="1249" cy="43" r="9" fill="url(#bulb)"/>
    <circle cx="1313" cy="43" r="9" fill="url(#bulb)"/>
    <circle cx="1377" cy="47" r="9" fill="url(#bulb)"/>
    <circle cx="1441" cy="54" r="9" fill="url(#bulb)"/>
    <circle cx="337" cy="902" r="7" fill="url(#bulb)"/>
    <circle cx="401" cy="910" r="7" fill="url(#bulb)"/>
    <circle cx="465" cy="912" r="7" fill="url(#bulb)"/>
    <circle cx="1214" cy="912" r="7" fill="url(#bulb)"/>
    <circle cx="1278" cy="910" r="7" fill="url(#bulb)"/>
    <circle cx="1342" cy="902" r="7" fill="url(#bulb)"/>
  </g>
</svg>
